<svg xmlns="http://www.w3.org/2000/svg" viewBox="0 0 290 290"><title>instagram-logo</title><polygon points="210.9 94.6 79.1 94.6 145 151.72 210.9 94.6" style="fill:#8da5e2"/><path d="M145,167.26a6.71,6.71,0,0,1-4.38-1.63L73.84,107.76v84a3.7,3.7,0,0,0,3.69,3.69H212.47a3.69,3.69,0,0,0,3.68-3.69V107.76l-66.77,57.87A6.71,6.71,0,0,1,145,167.26Z" style="fill:#8da5e2"/><path d="M145,5A140,140,0,1,0,285,145,140,140,0,0,0,145,5Zm84.53,186.71a17.08,17.08,0,0,1-17.06,17.07H77.53a17.08,17.08,0,0,1-17.06-17.07V98.29A17.08,17.08,0,0,1,77.53,81.22H212.47a17.08,17.08,0,0,1,17.06,17.07Z" style="fill:#8da5e2"/></svg>