<svg xmlns="http://www.w3.org/2000/svg" viewBox="0 0 290 290"><title>instagram-logo</title><path d="M145,5A140,140,0,1,0,285,145,140,140,0,0,0,145,5Zm41.44,87.5a1.29,1.29,0,0,1-1.28,1.28h-14c-11.19,0-13.44,5-13.44,13.2v15.46a2,2,0,0,0,2,2h24.5a1.25,1.25,0,0,1,.9.37,1.23,1.23,0,0,1,.38.9v26.42a1.28,1.28,0,0,1-1.28,1.28H159.68a2,2,0,0,0-2,2v66.65a1.28,1.28,0,0,1-1.28,1.28H129.07a1.28,1.28,0,0,1-1.28-1.28V155.41a2,2,0,0,0-2-2h-21a1.29,1.29,0,0,1-1.28-1.28V125.71a1.28,1.28,0,0,1,1.28-1.27h21a2,2,0,0,0,2-2V104.2c0-22.8,14.34-37.54,36.53-37.54l20.84,0A1.28,1.28,0,0,1,186.44,68Z" style="fill:#8da5e2"/></svg>