<svg xmlns="http://www.w3.org/2000/svg" viewBox="0 0 290 290"><title>instagram-logo</title><path d="M145,5A140,140,0,1,0,285,145,140,140,0,0,0,145,5Zm84.53,177.88a46.71,46.71,0,0,1-46.66,46.65H107.12a46.71,46.71,0,0,1-46.65-46.65V107.12a46.71,46.71,0,0,1,46.65-46.65h75.75a46.71,46.71,0,0,1,46.66,46.65Z" style="fill:#8da5e2"/><path d="M145,116.44A28.56,28.56,0,1,0,173.56,145,28.59,28.59,0,0,0,145,116.44Z" style="fill:#8da5e2"/><path d="M214.53,182.88V107.12a31.69,31.69,0,0,0-31.66-31.65H107.12a31.69,31.69,0,0,0-31.65,31.65v75.76a31.69,31.69,0,0,0,31.65,31.65h75.76a31.69,31.69,0,0,0,31.65-31.65ZM145,188.56A43.56,43.56,0,1,1,188.56,145,43.61,43.61,0,0,1,145,188.56Zm53.17-81.06a11,11,0,1,1,3.22-7.78A11.11,11.11,0,0,1,198.17,107.5Z" style="fill:#8da5e2"/></svg>