<svg xmlns="http://www.w3.org/2000/svg" viewBox="0 0 43 59"><defs><style>.cls-1{fill:#efefef;}</style></defs><title>new_portfolio</title><g id="圖層_4" data-name="圖層 4"><path class="cls-1" d="M21.48,58.55,3.94,53.69.08,10.42H42.92L39.05,53.68ZM5.81,52.13l15.67,4.35,15.7-4.36,3.55-39.7H2.27Z"/><polygon class="cls-1" points="9.49 7.5 15.21 7.5 15.21 5.63 11.6 5.63 11.6 2.56 15.21 2.56 15.21 0.45 9.49 0.45 9.49 7.5"/><path class="cls-1" d="M18.51,2.73l.92.9,1.51,1.49.51.51H18.51V7.5h5.73v-2l-3-2.9h3V.45H18.51Z"/><path class="cls-1" d="M27.47,2.73l.92.9L29.9,5.12l.51.51H27.47V7.5H33.2v-2l-3-2.9h3V.45H27.47Z"/><polygon class="cls-1" points="9.4 24.42 21.98 24.42 22.17 25.38 9.95 30.49 10.28 34.64 28.03 34.64 27.58 42.07 21.3 43.84 15.24 42.31 14.91 38.35 10.72 38.35 11.32 45.31 21.35 48.27 31.32 45.36 32.6 30.67 21.29 30.67 21.09 29.71 33.11 24.58 33.53 20.4 8.91 20.4 9.4 24.42"/></g></svg>