<svg xmlns="http://www.w3.org/2000/svg" viewBox="0 0 54 54"><title>new_portfolio</title><circle cx="27" cy="27" r="26.22" style="fill:none;stroke:#efefef;stroke-miterlimit:10"/><path d="M23.78,18.46a9.86,9.86,0,0,0-2.13-.57,13.62,13.62,0,0,0-2.21-.17,9.45,9.45,0,0,0-3.5.61,7.12,7.12,0,0,0-2.64,1.76,7.48,7.48,0,0,0-1.66,2.77,10.89,10.89,0,0,0-.57,3.63,10.9,10.9,0,0,0,.57,3.64,7.56,7.56,0,0,0,1.66,2.75,7.12,7.12,0,0,0,2.64,1.76,9.45,9.45,0,0,0,3.5.61,13.62,13.62,0,0,0,2.21-.17,9.86,9.86,0,0,0,2.13-.57l.23,1a8.65,8.65,0,0,1-2.16.6,16.11,16.11,0,0,1-2.5.2,10.45,10.45,0,0,1-4-.73,8.43,8.43,0,0,1-3-2,8.62,8.62,0,0,1-1.87-3.11,11.82,11.82,0,0,1-.64-4,11.74,11.74,0,0,1,.64-4,8.89,8.89,0,0,1,1.87-3.11,8.45,8.45,0,0,1,3-2,10.45,10.45,0,0,1,4-.73,16.11,16.11,0,0,1,2.5.2,8.65,8.65,0,0,1,2.16.6Z" style="fill:#efefef"/><path d="M41.63,17h1.26L35.83,36h-1l-7-19H29l6.31,17.34Z" style="fill:#efefef"/></svg>