<svg xmlns="http://www.w3.org/2000/svg" viewBox="0 0 54 54"><title>new_portfolio</title><path d="M39.55,11.54a4.07,4.07,0,0,0-2.49.34,16.5,16.5,0,0,0-2.82,1.35L33.07,14a22.16,22.16,0,0,0-11.8,0c-.33-.23-.77-.5-1.31-.83A18.24,18.24,0,0,0,17.4,12a4.38,4.38,0,0,0-2.65-.42,8.26,8.26,0,0,0-.21,6.27,9,9,0,0,0-2.43,6.33,15.34,15.34,0,0,0,.63,4.61A10,10,0,0,0,14.35,32,8.2,8.2,0,0,0,16.83,34a11.84,11.84,0,0,0,2.89,1.2,21.37,21.37,0,0,0,3.14.56A5,5,0,0,0,21.36,39a5.74,5.74,0,0,1-1.38.46,8.93,8.93,0,0,1-1.75.16,3.64,3.64,0,0,1-2-.66A5.44,5.44,0,0,1,14.51,37,5,5,0,0,0,13,35.39a4.5,4.5,0,0,0-1.52-.74l-.62-.09a1.87,1.87,0,0,0-.89.14c-.16.09-.21.21-.15.35a1.7,1.7,0,0,0,.27.43,2.74,2.74,0,0,0,.4.37l.22.15a3.79,3.79,0,0,1,1.33,1.17,7.07,7.07,0,0,1,1,1.57l.31.7a3.94,3.94,0,0,0,1.35,1.89,4.79,4.79,0,0,0,2.06.93,13.47,13.47,0,0,0,2.14.21,8.38,8.38,0,0,0,1.7-.11l.71-.12c0,.78,0,1.69,0,2.73s0,1.6,0,1.66a1.21,1.21,0,0,1-.4.93,1.35,1.35,0,0,1-1.17.22,23.67,23.67,0,0,0,14.82,0,1.29,1.29,0,0,1-1.16-.23,1.23,1.23,0,0,1-.38-.92V40.15a5.48,5.48,0,0,0-1.6-4.36,21.28,21.28,0,0,0,3.15-.56A12.17,12.17,0,0,0,37.48,34,8.62,8.62,0,0,0,40,32a9.38,9.38,0,0,0,1.62-3.23,15.46,15.46,0,0,0,.63-4.62,8.94,8.94,0,0,0-2.42-6.33A8.19,8.19,0,0,0,39.55,11.54Z" style="fill:none;stroke:#efefef;stroke-linejoin:round"/><circle cx="27" cy="27" r="26.22" style="fill:none;stroke:#efefef;stroke-linejoin:round"/></svg>