<svg xmlns="http://www.w3.org/2000/svg" viewBox="0 0 43 59"><defs><style>.cls-1{fill:#efefef;}</style></defs><title>new_portfolio</title><g id="圖層_4" data-name="圖層 4"><path class="cls-1" d="M21.48,58.55,3.94,53.69.08,10.42H42.92L39.05,53.68ZM5.81,52.13l15.67,4.35,15.7-4.36,3.55-39.7H2.27Z"/><polygon class="cls-1" points="10.21 3 7.25 3 7.25 0.45 5.26 0.45 5.26 7.58 7.25 7.58 7.25 4.99 10.21 4.99 10.21 7.58 12.2 7.58 12.2 0.45 10.21 0.45 10.21 3"/><polygon class="cls-1" points="13.92 2.41 16.2 2.41 16.2 7.58 18.18 7.58 18.18 2.41 20.46 2.41 20.46 0.45 13.92 0.45 13.92 2.41"/><polygon class="cls-1" points="26.25 3.44 24.42 0.45 22.19 0.45 22.19 7.58 24.12 7.58 24.12 3.03 26.23 6.28 28.33 3.03 28.33 7.58 30.3 7.58 30.3 0.45 28.07 0.45 26.25 3.44"/><polygon class="cls-1" points="34.18 0.45 32.19 0.45 32.19 7.58 37.81 7.58 37.81 5.63 34.18 5.63 34.18 0.45"/><polygon class="cls-1" points="10.57 34.79 28.3 34.79 27.62 42.28 21.59 43.91 21.47 43.94 15.34 42.28 14.99 38.33 10.89 38.33 11.52 45.43 21.48 48.2 31.45 45.43 32.76 30.7 14.31 30.7 13.76 24.49 33.32 24.49 33.68 20.4 9.29 20.4 10.57 34.79"/></g></svg>