<svg xmlns="http://www.w3.org/2000/svg" viewBox="0 0 57 57"><defs><style>.cls-1{fill:#efefef;}</style></defs><title>new_portfolio</title><g id="圖層_4" data-name="圖層 4"><path class="cls-1" d="M56.58,56.58H.42V.42H56.58Zm-54.16-2H54.58V2.42H2.42Z"/><path class="cls-1" d="M23.08,47.29c-1.86,0-2.75-1.21-3.45-2.43l-3.31,2a7.37,7.37,0,0,0,7,4c4.57,0,7.09-2.54,7.09-7.17V26.78H26.3V43.59C26.3,46.11,25.28,47.29,23.08,47.29Z"/><path class="cls-1" d="M42.93,50.83c4.89,0,7.93-2.52,7.93-6.59s-2.27-5.74-6.46-7.53l-1.27-.55c-2.07-.9-3.43-1.63-3.43-3.55a2.73,2.73,0,0,1,2.94-2.68,3.77,3.77,0,0,1,3.43,2l3.12-2a7,7,0,0,0-6.55-3.42c-4.1,0-7,2.56-7,6.23,0,3.93,2.32,5.73,5.81,7.21l1.27.55c2.33,1,4,1.75,4,3.84,0,1.77-1.62,3-4,3a5.89,5.89,0,0,1-5.18-2.92l-3.31,1.91C35.39,48.18,37.82,50.83,42.93,50.83Z"/></g></svg>