<svg xmlns="http://www.w3.org/2000/svg" viewBox="0 0 54 54"><title>new_portfolio</title><circle cx="27" cy="27" r="26.22" style="fill:none;stroke:#efefef;stroke-linejoin:round"/><path d="M42.67,29.11V39.92H36.4V29.83c0-2.53-.91-4.26-3.18-4.26A3.43,3.43,0,0,0,30,27.86a4.23,4.23,0,0,0-.21,1.53V39.92H23.53s.09-17.08,0-18.85H29.8v2.67l0,.06h0v-.06a6.24,6.24,0,0,1,5.65-3.11c4.12,0,7.22,2.69,7.22,8.48ZM17,12a3.27,3.27,0,1,0-.08,6.52h0A3.27,3.27,0,1,0,17,12ZM13.8,39.92h6.27V21.07H13.8Z" style="fill:none;stroke:#efefef;stroke-linejoin:round"/></svg>