<svg xmlns="http://www.w3.org/2000/svg" viewBox="0 0 41 60"><defs><style>.cls-1{fill:#efefef;}</style></defs><title>new_portfolio3</title><g id="圖層_4" data-name="圖層 4"><path class="cls-1" d="M23.59,59.31A2,2,0,0,1,21.71,58,78.39,78.39,0,0,1,17.6,33.54a11.24,11.24,0,0,1-7-1.69,7.11,7.11,0,0,1-2.81-6.08c0-4.33,3.93-8.46,11.68-12.28l.73-.35H11.07a2,2,0,0,1,0-4H30.9a2,2,0,0,1,.57,3.92c-6.43,1.88-19.7,7.47-19.7,12.71a3.14,3.14,0,0,0,1.17,2.85,7.68,7.68,0,0,0,4.71.92A33.86,33.86,0,0,1,18.4,23a4.93,4.93,0,0,1,3.26-3.44c3.43-1.25,8.58.14,11.38,2.15a3.73,3.73,0,0,1,1.79,3.72C34.26,29.05,27.92,31.34,26,32a36,36,0,0,1-4.38,1.11,73.71,73.71,0,0,0,3.86,23.57,2,2,0,0,1-1.21,2.56A2,2,0,0,1,23.59,59.31Zm1.06-36.23a5,5,0,0,0-1.63.24c-.64.23-.72.53-.75.68a29.83,29.83,0,0,0-.57,5c1.07-.23,2.11-.51,3.07-.82,3.06-1,5.36-2.39,6-3.16l0,0A11.57,11.57,0,0,0,24.65,23.08Z"/><polygon class="cls-1" points="40.87 41.92 26.68 41.92 26.68 37.92 36.87 37.92 36.87 4.69 4.13 4.69 4.13 37.92 14.16 37.92 14.16 41.92 0.13 41.92 0.13 0.69 40.87 0.69 40.87 41.92"/></g></svg>