<svg xmlns="http://www.w3.org/2000/svg" viewBox="0 0 55 60"><title>nodeJS_logo</title><path d="M25.14,59.07a4.41,4.41,0,0,0,4.48.14L52.2,46.47a4.17,4.17,0,0,0,2.25-3.62V17.17a4.15,4.15,0,0,0-2.08-3.55L29.71.82a4.52,4.52,0,0,0-4.42,0h0L2.71,13.57A4.16,4.16,0,0,0,.55,17.16V42.84a4.18,4.18,0,0,0,2.24,3.63c.83.45,1.64.91,2.45,1.37,1.3.75,2.65,1.52,4,2.19a8.76,8.76,0,0,0,7.81.23c2-1.06,2.72-3.45,2.72-5.33q0-7.95,0-15.89V19.51a.24.24,0,0,0,0-.21c-1,0-2,0-2.93,0l-.14,0c0,4.44,0,8.81,0,13.19V44.64a3.38,3.38,0,0,1-2.21,3.19,5.13,5.13,0,0,1-4.19-.54l-6-3.4a1.24,1.24,0,0,1-.68-1.23V17.3A1.32,1.32,0,0,1,4.34,16L16.71,9,26.79,3.35a1.32,1.32,0,0,1,1.46,0L50.71,16a1.31,1.31,0,0,1,.74,1.31v8.42q0,8.48,0,16.94a1.25,1.25,0,0,1-.71,1.21L39.28,50.39l-10.67,6-.14.08a1.49,1.49,0,0,1-1.58.19c-1.11-.62-2.21-1.26-3.31-1.9l-2.47-1.43c-.08-.06-.14-.08-.14-.06l-.19.1a14.82,14.82,0,0,1-2.61,1.21l-.35.12-.14,0,.38.23Z" style="fill:#efefef"/><path d="M25.13,39.55A11.32,11.32,0,0,0,31.59,42a23.88,23.88,0,0,0,7.49-.32,8.83,8.83,0,0,0,4.8-2.57A6.55,6.55,0,0,0,45,32.84a5.2,5.2,0,0,0-3.39-3,33.53,33.53,0,0,0-6.65-1.35,43.26,43.26,0,0,1-5.34-.93l-.11,0a3,3,0,0,1-2.08-1.46,3.15,3.15,0,0,1,1.05-3.55,8.3,8.3,0,0,1,4.37-1.11H33a12.31,12.31,0,0,1,5.81.88,4.9,4.9,0,0,1,2.36,3.37c0,.18.1.29.14.29h2.88a.29.29,0,0,0,.22-.07,6.79,6.79,0,0,0-3.32-5.8c-2.93-1.61-6.42-1.63-9.45-1.43-2.83.28-4.87,1.1-6.25,2.49a6,6,0,0,0-1.2,6.28,5.44,5.44,0,0,0,3.37,2.9A26.19,26.19,0,0,0,33.7,31.5a29.57,29.57,0,0,1,5.84,1,3.07,3.07,0,0,1,2.24,1.87,3.54,3.54,0,0,1-1,3.42c-1.59,1.28-3.66,1.37-5.48,1.45h-.88c-2.08,0-4.43-.05-6.35-1.28a4.81,4.81,0,0,1-1.87-3.44.32.32,0,0,0-.06-.19c-1.05,0-2,0-3,0h0c-.09,0-.14,0-.14,0A6.5,6.5,0,0,0,25.13,39.55Z" style="fill:#efefef"/></svg>