<svg xmlns="http://www.w3.org/2000/svg" viewBox="0 0 63 56"><defs><style>.cls-1{fill:#efefef;}</style></defs><title>new_portfolio</title><g id="圖層_4" data-name="圖層 4"><path class="cls-1" d="M62.82,28c0-3.55-4.23-7.22-11-9.56-.64-.22-1.32-.44-2-.64l-.28-.08.07-.28c.11-.46.22-.92.31-1.38C51.4,8.53,50.34,2.72,47.1.84A5.4,5.4,0,0,0,44.36.17c-3.08,0-7,1.94-11.06,5.46-.51.45-1,.93-1.56,1.44l-.21.2-.21-.2c-.35-.33-.69-.66-1-1C26.07,2.37,21.81.23,18.58.23a5.49,5.49,0,0,0-2.82.7C12.69,2.7,11.64,8.2,13,15.27c.13.67.29,1.37.46,2.08l.07.28-.28.08c-.81.23-1.59.48-2.32.73C4.21,20.79.18,24.35.18,28s4.46,7.59,11.36,10c.53.18,1.1.36,1.7.53l.27.08-.07.28c-.19.76-.35,1.52-.49,2.24-1.33,7-.26,12.28,2.85,14.08a5.75,5.75,0,0,0,2.87.7c3.21,0,7.38-2,11.43-5.57.42-.37.86-.78,1.31-1.21l.21-.2.2.2c.57.55,1.14,1.07,1.7,1.55,3.94,3.39,7.78,5.25,10.82,5.25a5.51,5.51,0,0,0,2.8-.69c3.19-1.85,4.34-7.67,2.92-14.82-.1-.53-.23-1.1-.37-1.68l-.07-.28.27-.08c.4-.11.79-.24,1.17-.36C58.31,35.52,62.82,31.69,62.82,28ZM33.22,8.56c.49-.47,1-.93,1.46-1.34,3.57-3.1,7.18-5,9.66-5a3.46,3.46,0,0,1,1.71.4C48.41,4,49.11,9.22,47.8,15.59c-.08.41-.18.84-.28,1.27l-.07.28-.29-.06a63.68,63.68,0,0,0-8.42-1.33H38.6l-.08-.12A61.52,61.52,0,0,0,33.2,9L33,8.77ZM18.28,31.07l.24-.59.3.57c.57,1.1,1.17,2.2,1.78,3.26s1.3,2.17,2,3.24l.35.53L22.3,38a57.46,57.46,0,0,1-5.86-.95L16.12,37l.1-.31A59.47,59.47,0,0,1,18.28,31.07Zm0-6.12c-.78-1.86-1.46-3.71-2-5.5l-.09-.31.31-.07c1.81-.41,3.75-.74,5.77-1l.63-.08-.34.54c-.67,1-1.32,2.11-1.94,3.17S19.38,23.88,18.82,25l-.3.57Zm4.15,8.31c-1-1.68-1.88-3.4-2.71-5.12L19.65,28l.06-.13c.83-1.72,1.74-3.45,2.71-5.12h0c1-1.67,2-3.32,3.07-4.9l.08-.12h.15c1.91-.14,3.85-.21,5.78-.21s3.89.07,5.79.21l.15,0,.08.12c1,1.55,2.08,3.2,3.06,4.88s1.9,3.41,2.73,5.09l.07.13-.07.13c-.83,1.71-1.74,3.44-2.73,5.14s-2,3.36-3,4.91l-.08.13h-.15c-1.89.13-3.85.2-5.81.2s-3.89-.06-5.75-.18h-.14l-.08-.12C24.44,36.59,23.39,34.94,22.42,33.26Zm18,4.24c.66-1,1.31-2.12,1.94-3.21s1.24-2.22,1.82-3.34l.29-.55.25.57a56.83,56.83,0,0,1,2.14,5.59l.1.31-.32.08a57.09,57.09,0,0,1-5.93,1l-.63.07ZM44.75,25l-.25.58L44.21,25c-.57-1.09-1.18-2.19-1.82-3.28s-1.25-2.12-1.91-3.16L40.13,18l.64.09a57.06,57.06,0,0,1,5.79,1l.32.07-.1.31A57.15,57.15,0,0,1,44.75,25ZM31.31,10.51l.22-.24.22.24A57.06,57.06,0,0,1,35.49,15l.38.51-.63,0c-1.25-.06-2.5-.09-3.74-.09s-2.48,0-3.71.09l-.64,0,.39-.51C28.77,13.4,30,11.88,31.31,10.51ZM16.81,2.74a3.56,3.56,0,0,1,1.79-.42c2.66,0,6.51,2,10.29,5.36l.95.88.22.21-.2.21a63.82,63.82,0,0,0-5.37,6.64l-.08.11h-.13a66.61,66.61,0,0,0-8.4,1.31l-.29.07-.07-.29c-.17-.68-.32-1.34-.44-2C13.91,8.89,14.61,4,16.81,2.74ZM14.08,36.48l-.28-.08c-.55-.16-1.08-.32-1.58-.49a23.14,23.14,0,0,1-7.47-4c-1.59-1.36-2.47-2.77-2.47-4,0-2.55,3.76-5.57,9.36-7.52.69-.24,1.43-.48,2.2-.69l.28-.08.08.28a66.21,66.21,0,0,0,3.07,8l.06.12-.06.13a64.62,64.62,0,0,0-3.1,8.06ZM29.93,47.53c-.41.4-.82.78-1.21,1.12a23.11,23.11,0,0,1-7.18,4.49,8.62,8.62,0,0,1-2.87.57,3.74,3.74,0,0,1-1.82-.42c-2.2-1.28-2.94-6-1.83-11.87.13-.68.28-1.39.46-2.12l.07-.28.29.06a62.74,62.74,0,0,0,8.48,1.23h.14l.08.12a64.67,64.67,0,0,0,5.4,6.67l.2.22Zm1.68-1.71-.23-.24c-1.28-1.39-2.57-2.93-3.82-4.58l-.38-.5.63,0c1.21,0,2.45.07,3.69.07s2.54,0,3.8-.08l.63,0-.37.5c-1.24,1.69-2.5,3.23-3.73,4.6Zm16.7,3.37c-.39,2.06-1.17,3.52-2.22,4.13a3.46,3.46,0,0,1-1.77.42c-2.44,0-6-1.78-9.43-4.76-.52-.45-1.06-.94-1.6-1.46l-.21-.2.2-.22a62.44,62.44,0,0,0,5.27-6.69l.08-.12h.14A62.64,62.64,0,0,0,47.3,39l.28-.06.08.28c.13.53.24,1,.34,1.55A23.29,23.29,0,0,1,48.31,49.19ZM50.4,35.92l-1.07.34-.29.08L49,36.06a63.89,63.89,0,0,0-3.19-8L45.71,28l.06-.13A62.82,62.82,0,0,0,48.83,20l.09-.28.28.08c.66.19,1.3.39,1.89.59,5.76,2,9.63,5,9.63,7.58C60.72,30.67,56.57,33.88,50.4,35.92Z"/><path class="cls-1" d="M31.5,22.45A5.5,5.5,0,1,0,37,28,5.51,5.51,0,0,0,31.5,22.45Z"/></g></svg>