<svg xmlns="http://www.w3.org/2000/svg" viewBox="0 0 70 53"><title>Sass_logo</title><path d="M60,30.35a14.38,14.38,0,0,0-6.27,1.46,12.86,12.86,0,0,1-1.41-3.24,9,9,0,0,1-.12-2.73A21.83,21.83,0,0,1,53,22.89c0-.13-.15-.72-1.54-.73s-2.6.27-2.73.63a14.51,14.51,0,0,0-.58,2.07c-.25,1.27-2.79,5.78-4.24,8.15a8.4,8.4,0,0,1-1-2.39,9,9,0,0,1-.12-2.73,22.79,22.79,0,0,1,.82-2.95c0-.12-.15-.71-1.54-.73s-2.6.27-2.73.64-.29,1.23-.58,2.07-3.67,8.36-4.55,10.32c-.45,1-.84,1.8-1.12,2.34s0,0,0,.09c-.25.46-.38.72-.38.72v0c-.19.33-.39.66-.49.66a4.5,4.5,0,0,1,0-2.15c.5-2.61,1.72-6.69,1.7-6.83s.23-.79-.78-1.15a1.22,1.22,0,0,0-1.42.24c-.08,0-.15.22-.15.22s1.1-4.59-2.1-4.59c-2,0-4.76,2.18-6.13,4.17l-4.65,2.54-2.25,1.23-.14-.16c-3.87-4.13-11-7.05-10.73-12.6.11-2,.81-7.33,13.74-13.77C30,2.94,38.43,4.39,39.9,7.61,42,12.21,35.37,20.76,24.36,22c-4.2.48-6.4-1.15-7-1.76s-.66-.66-.87-.54c-.36.19-.14.76,0,1.1a6.47,6.47,0,0,0,4,3.12c2,.67,6.94,1,12.9-1.27,6.67-2.58,11.87-9.75,10.34-15.75S32.07-1.21,22.5,2.19c-5.69,2-11.86,5.19-16.3,9.35C.93,16.46.09,20.76.44,22.55c1.23,6.37,10,10.52,13.53,13.59l-.49.27c-1.76.87-8.45,4.37-10.13,8.08-1.9,4.19.3,7.21,1.76,7.62,4.52,1.26,9.14-1,11.64-4.72S19,38.84,17.8,36.63l0-.08,1.38-.81c.89-.53,1.77-1,2.54-1.44a17.26,17.26,0,0,0-.91,4.6c-.19,2.38.79,5.47,2.07,6.69a2.34,2.34,0,0,0,1.67.54c1.49,0,2.16-1.23,2.91-2.71.92-1.8,1.73-3.88,1.73-3.88s-1,5.64,1.76,5.64c1,0,2-1.31,2.49-2v0l.08-.14.16-.26v0c.4-.71,1.31-2.32,2.66-5,1.75-3.44,3.43-7.74,3.43-7.74a24.75,24.75,0,0,0,.66,2.79,27.28,27.28,0,0,0,1.45,3.24l-.65.9h0c-.32.43-.69.89-1.07,1.35a37,37,0,0,0-3.24,4.08,1.1,1.1,0,0,0,.29,1.48,2.7,2.7,0,0,0,1.71.27,7.55,7.55,0,0,0,2.54-.58,8.6,8.6,0,0,0,2.19-1.15,4.86,4.86,0,0,0,2.1-4.31,8.67,8.67,0,0,0-.8-3c.12-.17.25-.35.37-.54A58.17,58.17,0,0,0,49.08,28a24.18,24.18,0,0,0,.66,2.79A18.37,18.37,0,0,0,51,33.57a12,12,0,0,0-3.69,4.78c-.8,2.3-.18,3.34,1,3.58a3.61,3.61,0,0,0,1.85-.37,8.45,8.45,0,0,0,2.34-1.21c1.35-1,2.65-2.39,2.58-4.27a8.17,8.17,0,0,0-.58-2.53,13.1,13.1,0,0,1,6.71-.77c6,.7,7.21,4.46,7,6a4.07,4.07,0,0,1-1.9,2.71c-.42.25-.56.35-.52.54s.25.27.61.21a4.68,4.68,0,0,0,3.28-4.18c.16-3.72-3.37-7.78-9.64-7.74ZM13.56,46c-2,2.17-4.79,3-6,2.3s-.78-4,1.67-6.27a32.05,32.05,0,0,1,4.69-3.5l1.23-.75.14-.08.31-.19A8.65,8.65,0,0,1,13.56,46Zm14.55-9.89c-.69,1.69-2.16,6-3,5.79s-1.22-3.49-.15-6.74a15,15,0,0,1,2.36-4.34c1.1-1.22,2.29-1.63,2.59-1.13C30.23,30.35,28.54,35.06,28.11,36.12Zm12,5.73c-.3.15-.57.26-.69.18s.12-.26.12-.26,1.5-1.61,2.09-2.35c.34-.43.75-.94,1.18-1.5v.16c0,2-1.87,3.25-2.7,3.77Zm9.25-2.11c-.22-.16-.19-.66.54-2.23A8.27,8.27,0,0,1,52,34.86a3.54,3.54,0,0,1,.2,1.16A3.8,3.8,0,0,1,49.36,39.74Z" style="fill:#efefef"/></svg>