<svg xmlns="http://www.w3.org/2000/svg" viewBox="0 0 400 520"><title>3</title><path d="M25.56,378.61l64-7.61q7.28,53.25,32.21,76.23t65.31,23q48.76,0,84.24-33.19t35.48-76q0-37.34-26.56-61.71T209,274.9q-5.1,0-21.11,1.38l11.28-52.2a124.78,124.78,0,0,0,18.2,1.39q56.4,0,86.78-26.1t30.39-64.13q0-34.92-24.93-58.77T248.62,52.62q-35.3,0-63.5,24.37t-36.2,69L84.14,133.51q16-62.56,61.5-96.79T253.35,2.49q65.5,0,106.08,37.68T400,132.82q0,40.11-22,70t-66,49.61Q343.23,270.06,358.7,295t15.46,57q0,68.11-53.67,118.06T192.22,520q-72.42,0-117-38.54T25.56,378.61Z" style="fill:none;stroke:#8da5e2;stroke-miterlimit:10"/></svg>