<svg xmlns="http://www.w3.org/2000/svg" viewBox="0 0 400 520"><title>2</title><path d="M24.83,520Q35,474.72,53,444.12T100.88,386q29.84-27.48,115-92.12,51.67-39.08,70.6-57.74,27.28-27,39.66-52.89a88.29,88.29,0,0,0,8.37-38.37q0-34.92-26-59.29T244.62,61.26q-37.49,0-65.5,24.72t-40,79.34l-64.41-9Q84.14,88.92,129.81,50T243.53,11.14q45.48,0,82.42,18t55.49,50.47Q400,112.09,400,146.65q0,50.47-37.84,97.14-23.3,29-136.83,114.42-48.77,36.66-72.59,60.16t-35.85,44.24H355.61L342.87,520Z" style="fill:none;stroke:#8da5e2;stroke-miterlimit:10"/></svg>