<svg xmlns="http://www.w3.org/2000/svg" viewBox="0 0 400 520"><title>5</title><path d="M25.56,366.51l67-6.22c-.49,9-.72,14.4-.72,16.25q0,22.82,12.19,46T137.09,458a86,86,0,0,0,44.21,12.27q30.57,0,62.23-20.05t51.31-58.42q19.65-38.38,19.65-76.06,0-42.51-26.39-68.1T218.78,222a117.7,117.7,0,0,0-54.4,13.14q-25.65,13.14-47.85,39.4L59,270.75,139.45,11.48H400L387.26,68.87H184.58l-40,128.94A179.84,179.84,0,0,1,191,174.48a156.58,156.58,0,0,1,48.94-7.78q61.13,0,100.43,38.37t39.3,105.09q0,58.43-26.93,107.69t-74.05,75.7A204.45,204.45,0,0,1,176.94,520q-45.85,0-81.15-19.71T42.84,446q-17.66-34.56-17.65-69.14Q25.19,373.43,25.56,366.51Z" style="fill:none;stroke:#8da5e2;stroke-miterlimit:10"/></svg>